<?xml version="1.0" standalone="no"?>
<!DOCTYPE svg PUBLIC "-//W3C//DTD SVG 20010904//EN"
 "http://www.w3.org/TR/2001/REC-SVG-20010904/DTD/svg10.dtd">
<svg version="1.0" xmlns="http://www.w3.org/2000/svg"
 width="500.000000pt" height="500.000000pt" viewBox="0 0 500.000000 500.000000"
 preserveAspectRatio="xMidYMid meet">

<g transform="translate(0.000000,500.000000) scale(0.100000,-0.100000)"
fill="#000000" stroke="none">
<path d="M1285 3374 c-313 -28 -597 -251 -698 -549 -40 -117 -47 -160 -47
-293 0 -177 25 -283 96 -419 231 -434 766 -572 1168 -301 156 106 276 271 334
458 18 61 23 87 37 216 8 65 -10 209 -36 299 -80 270 -308 492 -579 564 -76
20 -202 31 -275 25z m83 -212 c70 -45 68 -152 -3 -201 -82 -56 -185 3 -185
105 0 94 107 148 188 96z m-35 -283 c35 -16 46 -44 49 -124 l3 -70 55 -2 c30
-1 81 -2 113 -2 87 -1 123 -49 77 -99 -19 -20 -30 -22 -135 -22 l-115 0 0 -50
0 -50 123 0 c77 0 131 -5 146 -13 16 -8 48 -60 98 -157 54 -106 79 -145 91
-143 9 1 35 5 56 9 45 8 66 -10 66 -57 0 -35 -11 -43 -104 -74 -64 -21 -81
-24 -88 -13 -27 41 -97 163 -131 230 l-39 78 -162 0 c-88 0 -171 3 -184 6 -46
13 -52 46 -52 282 l0 220 29 31 c31 33 62 39 104 20z m-209 -324 c-43 -24 -94
-79 -115 -123 -33 -68 -32 -196 1 -267 54 -112 159 -177 289 -179 95 -1 159
27 253 113 l64 59 27 -47 26 -48 -62 -60 c-34 -33 -87 -72 -118 -86 -206 -101
-453 -16 -563 192 -43 82 -55 154 -44 252 16 138 82 234 202 294 l51 26 3 -58
c3 -47 0 -60 -14 -68z"/>
<path d="M2370 2895 l0 -215 40 0 40 0 0 70 0 70 55 0 c103 0 155 47 155 140
0 70 -28 117 -80 136 -19 7 -74 13 -122 13 l-88 1 0 -215z m191 114 c13 -20
11 -83 -3 -97 -7 -7 -34 -12 -60 -12 l-48 0 0 66 0 67 51 -5 c28 -3 55 -12 60
-19z"/>
<path d="M2825 3087 c-64 -36 -97 -92 -103 -176 -4 -62 -1 -77 22 -126 15 -30
31 -55 35 -55 4 0 16 -8 27 -17 80 -73 231 -45 294 53 27 43 30 56 30 126 0
44 -5 88 -12 101 -23 41 -73 88 -107 103 -52 22 -139 18 -186 -9z m148 -66
c83 -32 103 -161 35 -230 -26 -26 -38 -31 -78 -31 -56 0 -93 25 -115 77 -18
43 -19 73 -3 110 31 69 96 99 161 74z"/>
<path d="M3215 2895 l0 -215 42 0 42 0 3 72 c4 101 21 101 88 4 l52 -76 50 0
49 0 -50 73 c-28 40 -51 77 -51 81 0 4 13 19 30 32 38 32 53 86 39 138 -22 78
-77 106 -214 106 l-80 0 0 -215z m202 109 c36 -50 -1 -104 -72 -104 l-45 0 0
66 0 67 52 -5 c34 -4 56 -12 65 -24z"/>
<path d="M3570 3065 l0 -45 50 0 50 0 0 -170 0 -170 45 0 45 0 0 170 0 170 50
0 50 0 0 45 0 45 -145 0 -145 0 0 -45z"/>
<path d="M4001 3088 c-14 -35 -40 -105 -73 -193 -16 -44 -34 -89 -38 -100 -16
-40 -40 -106 -40 -110 0 -3 20 -5 45 -5 43 0 45 1 56 40 l12 40 82 0 82 0 13
-40 c13 -39 14 -40 60 -40 l48 0 -60 158 c-33 86 -63 166 -68 177 -5 11 -14
37 -21 58 -12 34 -16 37 -51 37 -31 0 -40 -5 -47 -22z m68 -168 c29 -77 28
-80 -25 -80 -51 0 -49 -9 -17 93 9 26 17 46 18 45 2 -2 13 -28 24 -58z"/>
<path d="M4300 2895 l0 -215 125 0 125 0 0 40 0 40 -85 0 -85 0 0 175 0 175
-40 0 -40 0 0 -215z"/>
<path d="M3235 2536 c-120 -38 -210 -125 -246 -236 -22 -71 -17 -214 10 -275
63 -141 184 -215 351 -215 68 0 95 5 135 24 55 26 101 64 134 113 l22 33 -62
40 -61 40 -28 -38 c-26 -37 -44 -48 -108 -72 -78 -30 -198 34 -236 124 -20 48
-21 162 -2 207 8 19 29 48 48 65 95 90 215 87 298 -7 l25 -29 57 38 c36 23 56
42 53 51 -17 45 -106 116 -174 139 -44 15 -165 14 -216 -2z"/>
<path d="M2370 2176 l0 -366 75 0 75 0 0 125 0 125 78 0 c151 0 243 51 275
151 42 129 2 246 -103 300 -41 20 -62 23 -222 27 l-178 4 0 -366z m320 219
c38 -20 50 -43 50 -97 0 -80 -44 -111 -151 -106 l-64 3 -3 108 -3 107 71 0
c44 0 82 -6 100 -15z"/>
<path d="M3730 2175 l0 -365 123 1 c211 0 316 31 404 117 53 51 78 105 94 198
21 117 -19 237 -103 315 -84 78 -163 99 -380 99 l-138 0 0 -365z m355 206 c75
-34 115 -104 115 -201 0 -65 -17 -116 -51 -155 -44 -49 -83 -65 -176 -72 l-83
-6 0 227 0 226 78 0 c53 0 90 -6 117 -19z"/>
</g>
</svg>
